<svg viewBox="6 6 24 24" xmlns="http://www.w3.org/2000/svg" width="32" height="32">
    <path
        d="M7.95557 17.9002C7.95557 11.8586 12.8532 6.96094 18.8948 6.96094C24.9364 6.96094 29.834 11.8586 29.834 17.9002C29.834 23.9417 24.9364 28.8394 18.8948 28.8394C12.8532 28.8394 7.95557 23.9417 7.95557 17.9002Z"
        fill="#fc3f1d"></path>
    <path
        d="M20.4364 24.4747H22.7218V11.3477H19.3975C16.0544 11.3477 14.2978 13.0665 14.2978 15.5974C14.2978 17.6184 15.2611 18.8084 16.9799 20.0361L13.9956 24.4747H16.4699L19.7942 19.5072L18.642 18.7328C17.2443 17.7884 16.5644 17.0518 16.5644 15.4652C16.5644 14.0675 17.5465 13.1231 19.4164 13.1231H20.4364V24.4747Z"
        fill="#fff"></path>
</svg>